/* XPM */
static char *e34d5e2fdbaf4bf5b42cdac34532f13ezokZrXEkiKQstcUg[] = {
/* columns rows colors chars-per-pixel */
"32 32 227 2 ",
"   c None",
".  c #030508",
"X  c #03080B",
"o  c #04080B",
"O  c #04080D",
"+  c #05080D",
"@  c #050A0F",
"#  c #050A10",
"$  c #050B11",
"%  c #060D13",
"&  c #070D13",
"*  c #071016",
"=  c #091017",
"-  c #09111C",
";  c #09131D",
":  c #121315",
">  c #1C1D1B",
",  c #1A1B1D",
"<  c #0D1922",
"1  c #0D1A23",
"2  c #0E1C23",
"3  c #0E1D23",
"4  c #0E1E23",
"5  c #0D1926",
"6  c #0D1A27",
"7  c #0D1B27",
"8  c #0E1E24",
"9  c #0E1E26",
"0  c #0E1B29",
"q  c #0E1C2B",
"w  c #101F23",
"e  c #101F24",
"r  c #151E27",
"t  c #0E2027",
"y  c #132521",
"u  c #122423",
"i  c #102024",
"p  c #102124",
"a  c #1F2122",
"s  c #132825",
"d  c #152826",
"f  c #172C27",
"g  c #112129",
"h  c #11222A",
"j  c #11242A",
"k  c #12252A",
"l  c #11212D",
"z  c #10202E",
"x  c #13272E",
"c  c #14282E",
"v  c #1A3225",
"b  c #193029",
"n  c #1B342C",
"m  c #1B352C",
"M  c #1D362E",
"N  c #1E392D",
"B  c #1F3A2F",
"V  c #1F3C2D",
"C  c #112432",
"Z  c #112235",
"A  c #112335",
"S  c #112336",
"D  c #142830",
"F  c #112438",
"G  c #13273C",
"H  c #14293F",
"J  c #172C3F",
"K  c #1E3B32",
"L  c #1F3D32",
"P  c #202224",
"I  c #212425",
"U  c #232527",
"Y  c #2D2A20",
"T  c #272A2B",
"R  c #282B2D",
"E  c #2D2F32",
"W  c #203E33",
"Q  c #36393B",
"!  c #3A3C3F",
"~  c #483A23",
"^  c #224234",
"/  c #234434",
"(  c #244637",
")  c #264A35",
"_  c #274C37",
"`  c #244838",
"'  c #244839",
"]  c #26493A",
"[  c #264A3B",
"{  c #2D583F",
"}  c #4B402A",
"|  c #715A34",
" . c #152B41",
".. c #172E40",
"X. c #152C42",
"o. c #152C43",
"O. c #172D45",
"+. c #172F44",
"@. c #172D47",
"#. c #172F47",
"$. c #182F48",
"%. c #183145",
"&. c #183046",
"*. c #183149",
"=. c #18314B",
"-. c #19314C",
";. c #19334D",
":. c #1A324D",
">. c #1C354D",
",. c #1A3651",
"<. c #1A3752",
"1. c #1B3856",
"2. c #1C3856",
"3. c #1C3958",
"4. c #1C3A5A",
"5. c #1F3E5A",
"6. c #1E3D5E",
"7. c #203F60",
"8. c #3D4042",
"9. c #2D5840",
"0. c #2D5941",
"q. c #305B42",
"w. c #305C42",
"e. c #305E44",
"r. c #37694C",
"t. c #376A4C",
"y. c #396D4F",
"u. c #3A6E50",
"i. c #3B7253",
"p. c #204160",
"a. c #214064",
"s. c #214365",
"d. c #214267",
"f. c #224468",
"g. c #22456B",
"h. c #23466B",
"j. c #23466D",
"k. c #23476D",
"l. c #23486F",
"z. c #244A71",
"x. c #244A72",
"c. c #244B73",
"v. c #264B73",
"b. c #264C74",
"n. c #284F7A",
"m. c #284F7B",
"M. c #295278",
"N. c #29527F",
"B. c #2C577E",
"V. c #434749",
"C. c #45494D",
"Z. c #478863",
"A. c #498E67",
"S. c #529D72",
"D. c #529F72",
"F. c #53A174",
"G. c #54A275",
"H. c #55A376",
"J. c #58A97A",
"K. c #5BAF7F",
"L. c #AF8C4F",
"P. c #BA9554",
"I. c #BE9856",
"U. c #FECB72",
"Y. c #FFCC73",
"T. c #2B5786",
"R. c #2C5888",
"E. c #2D5A8B",
"W. c #2E5E90",
"Q. c #326399",
"!. c #326499",
"~. c #31659B",
"^. c #33659B",
"/. c #34669E",
"(. c #3368A0",
"). c #3468A2",
"_. c #346BA2",
"`. c #356BA5",
"'. c #366CA7",
"]. c #366DA9",
"[. c #376FA9",
"{. c #386EAA",
"}. c #3870A1",
"|. c #3871A2",
" X c #3972A3",
".X c #3770AC",
"XX c #3B75A8",
"oX c #3871AD",
"OX c #3872AF",
"+X c #3972B0",
"@X c #3B75B6",
"#X c #3C79B9",
"$X c #3D78BB",
"%X c #3C7BBC",
"&X c #3D7BBD",
"*X c #3E7CBF",
"=X c #5FB785",
"-X c #60B785",
";X c #61BA86",
":X c #60BA87",
">X c #62BC88",
",X c #63BE89",
"<X c #64C08C",
"1X c #66C58E",
"2X c #68CA92",
"3X c #69CB93",
"4X c #6ACB93",
"5X c #6ACC94",
"6X c #6ACD94",
"7X c #6BCE95",
"8X c #3F80C6",
"9X c #3F81C6",
"0X c #4181C7",
"qX c #4183C9",
"wX c #4183CA",
"eX c #4282CA",
"rX c #4284CB",
"tX c #4284CC",
"yX c #4285CD",
"uX c #4286CE",
"iX c #4386CF",
"pX c #4387D0",
"aX c #4387D1",
"sX c #4388D1",
"dX c #4488D2",
"fX c #4489D2",
"gX c #4489D3",
/* pixels */
"            # 1.6.6.6.6.6.6.6.6.6.6.6.6.6.6.4.# q X             ",
"            eX8X8X0X8X8X8X8X8XgXgXgXgXgXgXgXgXgX5.}.            ",
"          ; oX, I T I R a R : uXgXgXgXgXgXgXgXgX,.XX*           ",
"          ; oXE 8.V.! C.Q C.a uXgXgXgXgXgXgXgXgX;.}.%           ",
"          ; eXN.N.N.N.N.N.N.N.fXgXgXgXgXgXgXgXgX+.B.+           ",
"          ; fXQ.q 5 5 5 5 5 5 5 5 5 5 5 5 5 T.gX+.M.o           ",
"          ; fXY U.Y.Y.Y.Y.Y.Y.Y.U.Y.Y.Y.Y.Y.~ gX;. X%           ",
"          ; fX} Y.Y.Y.Y.Y.Y.Y.Y.Y.Y.Y.Y.Y.Y.| gX<.XX=           ",
"          ; gX} Y.Y.Y.Y.Y.Y.Y.Y.Y.Y.Y.Y.Y.Y.| gX<.XX=           ",
"          ; gX} Y.Y.Y.Y.Y.Y.Y.Y.Y.Y.Y.Y.Y.Y.| gX<.XX=           ",
"          ; gXr L.I.I.I.I.I.I.I.I.I.I.I.I.P.> gX<.XX=           ",
"          ; gXgX{.`.`.`.`.`.`.`.`.`.`.`.`.'.pXgX<.XX=           ",
"          ; gXR.Z G #X).F F _.@XG S R.eX .Z l.gX,.XX=           ",
"          ; gXm 5X<Xo.h 3X3X1 o.1X5Xb z.K.5X_ gX<.XX=           ",
"          ; gXk u.9.z.+.t.t.o.j.0.y.k !.) u.u gX<.XX=           ",
"          ; gXgX8XeXfXgX8X8XgXgXrX8XgXfXtX8XgXgX<.XX=           ",
"          ; gX%.[ K W.d.[ ( f.R.L [ %.oXm [ D gX,.XX=           ",
"          = gXL 7X3XH h 5X5X1 H 5X5XM j.,X7X{ gX,.XX=           ",
"          ; gXd.w 3 ].T.u 2 T._.3 i d.$X3 t $.gX,.XX=           ",
"          ; gX0X~._.pXtX(.~.uXfX_.!.0XgX].~.*XfX<.XX=           ",
"          ; gXd G.Z.4.C F.S.q 1.A.D.u T.i.G.v fX<.XX=           ",
"          ; gXf :XG.;.l =X=Xq ;.J.:Xs m.A.:XB gX<.XX=           ",
"          ; gXoXh.v.eX%Xj.j.&X8Xb.l.+XpXm.g./.fX,.XX=           ",
"          ; gXT.Z G $X_.F F _.@XG Z E.8X .Z z.fX,.XX=           ",
"          ; gXm 5X<X+.g 5X2X1  .1X4Xb c.K.4X_ gX<.XX=           ",
"          ; gXD u.9.b.$.t.t.$.z.r.y.c h.,X7Xq.gXo.>..           ",
"          ; gXgXuXuXgXgXuXuXfXgX9XtXgXh.,X7Xw.gX;. X&           ",
"          ; gXo.` B E.p.^ ^ 7.R.K ( J g.,X7Xw.gXO.M.+           ",
"          ; gXW 7X4X .k 7X7X1 H 3X5XM l.>X5X{ gX,.XX=           ",
"          ; gXd.i 3 ].R.i i R.'.1 w g.$Xt t ;.gX,.XX*           ",
"            rXgXgXgXgXgXgXgXgXgXgXgXgXgXfXgXfXfX5.}.            ",
"            + 2.6.6.6.6.6.6.6.6.6.6.6.6.6.6.4.+ q X             "
};
